<?xml version="1.0" encoding="UTF-8"?><svg id="Layer_1" xmlns="http://www.w3.org/2000/svg" viewBox="0 0 1248 162"><defs><style>.cls-1{fill:#221f1f;}</style></defs><g><path class="cls-1" d="M80.7,135.28c-3.28,0-6.87-2.21-10.34-4.34-1.76-1.09-3.59-2.21-4.69-2.56-1.1-.36-3.23-.52-5.3-.68-4.06-.31-8.26-.64-10.91-2.57-2.66-1.93-4.26-5.82-5.81-9.59-.79-1.91-1.61-3.89-2.28-4.83-.68-.93-2.31-2.32-3.89-3.66-3.1-2.64-6.31-5.37-7.32-8.49-1.01-3.12-.02-7.22,.93-11.18,.49-2.01,.99-4.09,.99-5.24,0-1.15-.5-3.23-.99-5.25-.96-3.96-1.95-8.05-.93-11.18,1.01-3.12,4.22-5.85,7.32-8.49,1.58-1.34,3.21-2.73,3.88-3.66,.68-.93,1.49-2.91,2.28-4.83,1.55-3.77,3.16-7.66,5.81-9.59,2.66-1.93,6.85-2.25,10.91-2.57,2.07-.16,4.2-.32,5.3-.68,1.1-.36,2.92-1.48,4.69-2.56,3.47-2.13,7.06-4.34,10.34-4.34,3.28,0,6.87,2.21,10.34,4.34,1.76,1.09,3.59,2.21,4.69,2.56,1.1,.36,3.23,.52,5.3,.68,4.06,.31,8.26,.64,10.91,2.57,2.66,1.93,4.26,5.82,5.81,9.59,.79,1.91,1.61,3.89,2.28,4.83,.69,.95,2.33,2.36,3.92,3.72,3.05,2.62,6.2,5.33,7.27,8.37,1.1,3.15,.09,7.3-.9,11.3-.49,1.99-1,4.06-1,5.19,0,1.13,.51,3.19,1,5.19,.98,4.01,2,8.15,.9,11.3-1.06,3.04-4.22,5.75-7.27,8.37-1.59,1.36-3.23,2.77-3.92,3.72-.68,.93-1.49,2.91-2.28,4.83-1.55,3.77-3.16,7.66-5.81,9.59-2.66,1.93-6.85,2.25-10.91,2.57-2.07,.16-4.2,.32-5.3,.68-1.1,.36-2.92,1.48-4.69,2.56-3.47,2.13-7.06,4.34-10.34,4.34Zm0-99.5c-1.36,0-4.63,2.01-6.79,3.33-2.2,1.35-4.28,2.63-6.14,3.24-1.86,.61-4.3,.79-6.87,.99-2.53,.19-6.35,.49-7.45,1.29-1.1,.8-2.56,4.34-3.53,6.69-.98,2.39-1.91,4.64-3.07,6.23-1.15,1.59-3.01,3.17-4.98,4.84-1.93,1.64-4.85,4.13-5.27,5.42-.42,1.3,.48,5.02,1.07,7.49,.61,2.51,1.18,4.88,1.18,6.84s-.57,4.33-1.18,6.84c-.6,2.46-1.5,6.19-1.07,7.49,.42,1.3,3.34,3.78,5.27,5.42,1.97,1.68,3.82,3.26,4.98,4.84,1.15,1.58,2.08,3.84,3.07,6.23,.97,2.34,2.43,5.89,3.53,6.69,1.1,.8,4.92,1.1,7.45,1.29,2.57,.2,5.01,.39,6.87,.99,1.86,.61,3.94,1.88,6.14,3.24,2.16,1.33,5.42,3.33,6.79,3.33,1.36,0,4.63-2.01,6.78-3.33,2.2-1.35,4.28-2.63,6.14-3.24,1.86-.61,4.3-.79,6.87-.99,2.53-.2,6.35-.49,7.45-1.29,1.1-.8,2.56-4.34,3.53-6.69,.98-2.39,1.91-4.64,3.07-6.23,1.15-1.59,3.02-3.19,4.98-4.88,1.92-1.65,4.82-4.14,5.28-5.46,.44-1.25-.51-5.13-1.08-7.45-.61-2.5-1.19-4.85-1.19-6.81,0-1.95,.58-4.31,1.19-6.81,.57-2.32,1.52-6.19,1.08-7.45-.46-1.32-3.36-3.81-5.28-5.46-1.97-1.69-3.83-3.29-4.98-4.88-1.15-1.59-2.08-3.84-3.07-6.23-.97-2.34-2.43-5.89-3.53-6.69-1.1-.8-4.92-1.1-7.45-1.29-2.57-.2-5.01-.39-6.87-.99-1.86-.61-3.94-1.88-6.14-3.24-2.16-1.33-5.42-3.33-6.79-3.33Z"/><path class="cls-1" d="M89.86,79.45c-.58,0-1.16-.22-1.6-.66-4.16-4.16-10.93-4.16-15.09,0-.88,.88-2.31,.88-3.2,0s-.88-2.31,0-3.2c5.92-5.92,15.56-5.92,21.48,0,.88,.88,.88,2.31,0,3.2-.44,.44-1.02,.66-1.6,.66Z"/><path class="cls-1" d="M80.72,101.52c-1.25,0-2.26-1.01-2.26-2.26,0-15.5,12.61-28.12,28.12-28.12,1.25,0,2.26,1.01,2.26,2.26,0,15.5-12.61,28.12-28.12,28.12Zm23.47-25.74c-11.11,1.12-19.98,9.98-21.09,21.09,11.11-1.12,19.98-9.98,21.09-21.09Z"/><path class="cls-1" d="M80.72,109.41c-1.25,0-2.26-1.01-2.26-2.26v-9.03c0-1.25,1.01-2.26,2.26-2.26,1.25,0,2.26,1.01,2.26,2.26v9.03c0,1.25-1.01,2.26-2.26,2.26Z"/><path class="cls-1" d="M80.6,75.44c-1.25,0-2.26-1.01-2.26-2.26,0-5.88-4.78-10.67-10.67-10.67-1.25,0-2.26-1.01-2.26-2.26,0-1.25,1.01-2.26,2.26-2.26,8.38,0,15.19,6.81,15.19,15.19,0,1.25-1.01,2.26-2.26,2.26Z"/><path class="cls-1" d="M80.72,75.44c-1.25,0-2.26-1.01-2.26-2.26,0-8.38,6.81-15.19,15.19-15.19,1.25,0,2.26,1.01,2.26,2.26s-1.01,2.26-2.26,2.26c-5.88,0-10.67,4.78-10.67,10.67,0,1.25-1.01,2.26-2.26,2.26Z"/><path class="cls-1" d="M80.6,75.44c-1.25,0-2.26-1.01-2.26-2.26v-12.93c0-1.25,1.01-2.26,2.26-2.26,1.25,0,2.26,1.01,2.26,2.26v12.93c0,1.25-1.01,2.26-2.26,2.26Z"/><path class="cls-1" d="M80.6,101.52c-15.5,0-28.12-12.61-28.12-28.12,0-1.25,1.01-2.26,2.26-2.26,15.5,0,28.12,12.61,28.12,28.12,0,1.25-1.01,2.26-2.26,2.26Zm-23.47-25.74c1.12,11.11,9.98,19.98,21.09,21.09-1.12-11.11-9.98-19.98-21.09-21.09Z"/><path class="cls-1" d="M80.6,101.52c-1.25,0-2.26-1.01-2.26-2.26,0-13.01-10.58-23.59-23.59-23.59-1.25,0-2.26-1.01-2.26-2.26,0-1.25,1.01-2.26,2.26-2.26,15.5,0,28.12,12.61,28.12,28.12,0,1.25-1.01,2.26-2.26,2.26Z"/><path class="cls-1" d="M80.6,101.52c-15.5,0-28.12-12.61-28.12-28.12,0-1.25,1.01-2.26,2.26-2.26,1.25,0,2.26,1.01,2.26,2.26,0,13.01,10.58,23.59,23.59,23.59,1.25,0,2.26,1.01,2.26,2.26,0,1.25-1.01,2.26-2.26,2.26Z"/><path class="cls-1" d="M68.08,87.46h-9.87c-.62,0-1.13-.51-1.13-1.13,0-.62,.51-1.13,1.13-1.13h9.87c.62,0,1.13,.51,1.13,1.13,0,.62-.51,1.13-1.13,1.13Z"/><path class="cls-1" d="M66.67,83.6h-9.87c-.62,0-1.13-.51-1.13-1.13,0-.62,.51-1.13,1.13-1.13h9.87c.62,0,1.13,.51,1.13,1.13s-.51,1.13-1.13,1.13Z"/><path class="cls-1" d="M72.13,91.23h-9.87c-.62,0-1.13-.51-1.13-1.13,0-.62,.51-1.13,1.13-1.13h9.87c.62,0,1.13,.51,1.13,1.13,0,.62-.51,1.13-1.13,1.13Z"/><path class="cls-1" d="M75.05,95.1h-9.87c-.62,0-1.13-.51-1.13-1.13s.51-1.13,1.13-1.13h9.87c.62,0,1.13,.51,1.13,1.13,0,.62-.51,1.13-1.13,1.13Z"/><path class="cls-1" d="M77.83,80.68h-7.39c-.62,0-1.13-.51-1.13-1.13s.51-1.13,1.13-1.13h7.39c.62,0,1.13,.51,1.13,1.13,0,.62-.51,1.13-1.13,1.13Z"/><path class="cls-1" d="M79.52,83.6h-6.07c-.62,0-1.13-.51-1.13-1.13,0-.62,.51-1.13,1.13-1.13h6.07c.62,0,1.13,.51,1.13,1.13,0,.62-.51,1.13-1.13,1.13Z"/><path class="cls-1" d="M86.55,95.1h-5.95c-.62,0-1.13-.51-1.13-1.13s.51-1.13,1.13-1.13h5.95c.62,0,1.13,.51,1.13,1.13,0,.62-.51,1.13-1.13,1.13Z"/><path class="cls-1" d="M89.52,91.23h-5.95c-.62,0-1.13-.51-1.13-1.13,0-.62,.51-1.13,1.13-1.13h5.95c.62,0,1.13,.51,1.13,1.13s-.51,1.13-1.13,1.13Z"/><path class="cls-1" d="M92.5,87.09h-5.95c-.62,0-1.13-.51-1.13-1.13,0-.62,.51-1.13,1.13-1.13h5.95c.62,0,1.13,.51,1.13,1.13,0,.62-.51,1.13-1.13,1.13Z"/><path class="cls-1" d="M95.47,83.04h-5.95c-.62,0-1.13-.51-1.13-1.13,0-.62,.51-1.13,1.13-1.13h5.95c.62,0,1.13,.51,1.13,1.13,0,.62-.51,1.13-1.13,1.13Z"/></g><g><path class="cls-1" d="M178,95.78l7.56-9.05c5.23,4.31,10.71,7.06,17.35,7.06,5.23,0,8.39-2.08,8.39-5.48v-.17c0-3.24-1.99-4.9-11.71-7.39-11.71-2.99-19.27-6.23-19.27-17.77v-.16c0-10.55,8.47-17.53,20.35-17.53,8.47,0,15.7,2.66,21.59,7.39l-6.64,9.64c-5.15-3.57-10.22-5.73-15.12-5.73-4.9,0-7.47,2.24-7.47,5.07v.16c0,3.82,2.49,5.07,12.54,7.64,11.79,3.08,18.43,7.31,18.43,17.44v.17c0,11.54-8.8,18.02-21.34,18.02-8.8,0-17.69-3.08-24.67-9.31Z"/><path class="cls-1" d="M252.38,46.12h12.79s0,58.14,0,58.14h-12.79s0-58.14,0-58.14Z"/><path class="cls-1" d="M296.33,46.12h43.85s0,11.38,0,11.38h-31.14v11.79h27.4s0,11.37,0,11.37h-27.4v12.21h31.56s0,11.38,0,11.38h-44.27s0-58.14,0-58.14Z"/><path class="cls-1" d="M368.63,46.12h11.79s27.24,35.79,27.24,35.79V46.12s12.63,0,12.63,0v58.14s-10.88,0-10.88,0l-28.16-36.96v36.96s-12.62,0-12.62,0V46.12Z"/><path class="cls-1" d="M450.9,46.12h11.79s27.24,35.79,27.24,35.79V46.12s12.63,0,12.63,0v58.14s-10.88,0-10.88,0l-28.16-36.96v36.96s-12.62,0-12.62,0V46.12Z"/><path class="cls-1" d="M553.1,45.7h11.79s24.91,58.55,24.91,58.55h-13.37s-5.32-13.04-5.32-13.04h-24.58s-5.32,13.04-5.32,13.04h-13.04s24.91-58.55,24.91-58.55Zm13.46,34.22l-7.72-18.85-7.73,18.85h15.45Z"/><path class="cls-1" d="M656.98,46.12h11.79s27.24,35.79,27.24,35.79V46.12s12.63,0,12.63,0v58.14s-10.88,0-10.88,0l-28.16-36.96v36.96s-12.62,0-12.62,0V46.12Z"/><path class="cls-1" d="M759.18,45.7h11.79s24.91,58.55,24.91,58.55h-13.37s-5.32-13.04-5.32-13.04h-24.58s-5.32,13.04-5.32,13.04h-13.04s24.91-58.55,24.91-58.55Zm13.46,34.22l-7.72-18.85-7.73,18.85h15.45Z"/><path class="cls-1" d="M827.57,57.91h-17.68s0-11.79,0-11.79h48.17s0,11.79,0,11.79h-17.69v46.34s-12.79,0-12.79,0V57.91Z"/><path class="cls-1" d="M883.59,79.34V46.12s12.79,0,12.79,0v32.89c0,9.47,4.73,14.36,12.54,14.36,7.81,0,12.54-4.73,12.54-13.95V46.12s12.79,0,12.79,0v32.81c0,17.61-9.88,26.25-25.5,26.25-15.61,0-25.16-8.72-25.16-25.83Z"/><path class="cls-1" d="M963.95,46.12h26.58c7.39,0,13.12,2.08,16.94,5.9,3.24,3.24,4.98,7.81,4.98,13.29v.17c0,9.38-5.07,15.28-12.46,18.02l14.2,20.76h-14.95s-12.46-18.6-12.46-18.6h-10.05v18.6s-12.79,0-12.79,0V46.12Zm25.75,28.24c6.23,0,9.8-3.33,9.8-8.22v-.17c0-5.48-3.82-8.3-10.05-8.3h-12.71v16.7h12.96Z"/><path class="cls-1" d="M1060.58,45.7h11.79s24.91,58.55,24.91,58.55h-13.37s-5.32-13.04-5.32-13.04h-24.58s-5.32,13.04-5.32,13.04h-13.04s24.91-58.55,24.91-58.55Zm13.46,34.22l-7.72-18.85-7.73,18.85h15.45Z"/><path class="cls-1" d="M1122.92,46.12h12.79s0,46.51,0,46.51h28.98s0,11.62,0,11.62h-41.77s0-58.14,0-58.14Z"/><path class="cls-1" d="M1186.99,95.78l7.56-9.05c5.23,4.31,10.71,7.06,17.35,7.06,5.23,0,8.39-2.08,8.39-5.48v-.17c0-3.24-1.99-4.9-11.71-7.39-11.71-2.99-19.27-6.23-19.27-17.77v-.16c0-10.55,8.47-17.53,20.35-17.53,8.47,0,15.7,2.66,21.59,7.39l-6.64,9.64c-5.15-3.57-10.22-5.73-15.12-5.73-4.9,0-7.47,2.24-7.47,5.07v.16c0,3.82,2.49,5.07,12.54,7.64,11.79,3.08,18.43,7.31,18.43,17.44v.17c0,11.54-8.8,18.02-21.34,18.02-8.8,0-17.69-3.08-24.67-9.31Z"/></g></svg>